<svg xmlns="http://www.w3.org/2000/svg" xmlns:xlink="http://www.w3.org/1999/xlink" version="1.1" viewBox="0 0 200 200"><style type="text/css">@keyframes load{0%{transform:rotate(-360deg)}}.left-linear{fill:url(#left-linear)}.right-linear{fill:url(#right-linear)}.top{fill:#64acff}.bottom{fill:#9dbfe4}.load{animation:load 1.4s linear infinite;transform-origin:center center}svg{display:block}</style><circle cx="97" cy="97" r="81" fill="none" stroke="#327fd8" stroke-width="16"/><g class="load"><linearGradient id="left-linear" x1="50" x2="100" y1="0" y2="180" gradientUnits="userSpaceOnUse"><stop style="stop-color:#64acff" offset="0"/><stop style="stop-color:#9dbfe4" offset="1"/></linearGradient><path d="M20,100c0-44.1,35.9-80,80-80V0C44.8,0,0,44.8,0,100s44.8,100,100,100v-20C55.9,180,20,144.1,20,100z" class="left-linear"/><circle cx="100" cy="190" r="10" class="bottom"/><linearGradient id="right-linear" x1="100" x2="100" y1="120" y2="180" gradientUnits="userSpaceOnUse"><stop style="stop-color:transparent" offset="0"/><stop style="stop-color:transparent" offset="1"/></linearGradient><path d="M100,0v20c44.1,0,80,35.9,80,80c0,44.1-35.9,80-80,80v20c55.2,0,100-44.8,100-100S155.2,0,100,0z" class="right-linear"/><circle cx="100" cy="10" r="10" class="top"/></g></svg>